<svg xmlns="http://www.w3.org/2000/svg" width="980" height="420" viewBox="0 0 980 420">
  <defs>
    <marker id="arrow" markerWidth="10" markerHeight="10" refX="8" refY="3" orient="auto">
      <path d="M0,0 L0,6 L9,3 z" fill="#374151"/>
    </marker>
    <style>
      .box{fill:#f8fafc;stroke:#334155;stroke-width:2;rx:10}
      .aws{fill:#fff7ed;stroke:#c2410c}
      .store{fill:#ecfdf5;stroke:#047857}
      .text{font-family:Arial, sans-serif;font-size:16px;fill:#111827}
      .small{font-size:13px;fill:#4b5563}
      .line{stroke:#374151;stroke-width:2;marker-end:url(#arrow)}
      .dash{stroke-dasharray:6 6}
    </style>
  </defs>
  <rect x="40" y="70" width="130" height="64" class="box"/>
  <text x="105" y="99" text-anchor="middle" class="text">Global users</text>
  <text x="105" y="120" text-anchor="middle" class="small">browser traffic</text>
  <rect x="230" y="70" width="130" height="64" class="box aws"/>
  <text x="295" y="99" text-anchor="middle" class="text">Route 53</text>
  <text x="295" y="120" text-anchor="middle" class="small">DNS routing</text>
  <rect x="420" y="70" width="150" height="64" class="box aws"/>
  <text x="495" y="99" text-anchor="middle" class="text">CloudFront</text>
  <text x="495" y="120" text-anchor="middle" class="small">CDN cache</text>
  <rect x="650" y="70" width="170" height="64" class="box store"/>
  <text x="735" y="99" text-anchor="middle" class="text">S3 website bucket</text>
  <text x="735" y="120" text-anchor="middle" class="small">HTML files</text>
  <line x1="170" y1="102" x2="230" y2="102" class="line"/>
  <line x1="360" y1="102" x2="420" y2="102" class="line"/>
  <line x1="570" y1="102" x2="650" y2="102" class="line"/>
  <rect x="250" y="250" width="160" height="64" class="box aws"/>
  <text x="330" y="279" text-anchor="middle" class="text">EC2 support VM</text>
  <text x="330" y="300" text-anchor="middle" class="small">AWS CLI checks</text>
  <rect x="650" y="250" width="170" height="64" class="box store"/>
  <text x="735" y="279" text-anchor="middle" class="text">S3 team bucket</text>
  <text x="735" y="300" text-anchor="middle" class="small">shared files</text>
  <rect x="450" y="330" width="170" height="54" class="box aws"/>
  <text x="535" y="362" text-anchor="middle" class="text">IAM scoped access</text>
  <line x1="410" y1="282" x2="650" y2="282" class="line dash"/>
  <line x1="410" y1="260" x2="665" y2="134" class="line dash"/>
</svg>
